<mxfile host="65bd71144e">
    <diagram name="Page-1" id="tFtbdX1ovqvAF_41Vxhx">
        <mxGraphModel dx="1386" dy="787" grid="0" gridSize="10" guides="1" tooltips="1" connect="1" arrows="1" fold="1" page="0" pageScale="1" pageWidth="850" pageHeight="1100" math="0" shadow="0">
            <root>
                <mxCell id="0"/>
                <mxCell id="1" parent="0"/>
                <mxCell id="8dbzwXfBBkByxiEQPmbJ-52" value="" style="rounded=0;whiteSpace=wrap;html=1;" parent="1" vertex="1">
                    <mxGeometry x="147.00137207031253" y="37.00202794392907" width="380" height="470" as="geometry"/>
                </mxCell>
                <mxCell id="8dbzwXfBBkByxiEQPmbJ-53" value="forum creation" style="ellipse;whiteSpace=wrap;html=1;" parent="1" vertex="1">
                    <mxGeometry x="197.00137207031253" y="157.00202794392908" width="120" height="80" as="geometry"/>
                </mxCell>
                <mxCell id="8dbzwXfBBkByxiEQPmbJ-54" value="Forum interaction" style="ellipse;whiteSpace=wrap;html=1;" parent="1" vertex="1">
                    <mxGeometry x="167.00137207031253" y="307.0020279439291" width="120" height="80" as="geometry"/>
                </mxCell>
                <mxCell id="8dbzwXfBBkByxiEQPmbJ-55" value="User" style="shape=umlActor;verticalLabelPosition=bottom;verticalAlign=top;html=1;outlineConnect=0;" parent="1" vertex="1">
                    <mxGeometry x="37.00137207031253" y="267.0020279439291" width="30" height="60" as="geometry"/>
                </mxCell>
                <mxCell id="8dbzwXfBBkByxiEQPmbJ-56" value="" style="endArrow=none;html=1;rounded=0;" parent="1" target="8dbzwXfBBkByxiEQPmbJ-54" edge="1">
                    <mxGeometry width="50" height="50" relative="1" as="geometry">
                        <mxPoint x="77.00137207031253" y="297.0020279439291" as="sourcePoint"/>
                        <mxPoint x="297.0013720703125" y="227.00202794392908" as="targetPoint"/>
                    </mxGeometry>
                </mxCell>
                <mxCell id="8dbzwXfBBkByxiEQPmbJ-57" value="create messages" style="ellipse;whiteSpace=wrap;html=1;" parent="1" vertex="1">
                    <mxGeometry x="423.0013720703125" y="170.00202794392908" width="85" height="50" as="geometry"/>
                </mxCell>
                <mxCell id="8dbzwXfBBkByxiEQPmbJ-59" value="&amp;nbsp;allow liking" style="ellipse;whiteSpace=wrap;html=1;" parent="1" vertex="1">
                    <mxGeometry x="386.0013720703125" y="264.0020279439291" width="90" height="50" as="geometry"/>
                </mxCell>
                <mxCell id="8dbzwXfBBkByxiEQPmbJ-60" value="allow muting&amp;nbsp;&lt;br&gt;&amp;nbsp;a forum" style="ellipse;whiteSpace=wrap;html=1;" parent="1" vertex="1">
                    <mxGeometry x="386.0013720703125" y="332.0020279439291" width="90" height="50" as="geometry"/>
                </mxCell>
                <mxCell id="8dbzwXfBBkByxiEQPmbJ-61" value="&amp;lt;&amp;lt;includes&amp;gt;&amp;gt;" style="endArrow=open;endSize=12;dashed=1;html=1;rounded=0;entryX=0;entryY=0.5;entryDx=0;entryDy=0;exitX=1;exitY=0.5;exitDx=0;exitDy=0;" parent="1" source="8dbzwXfBBkByxiEQPmbJ-53" target="8dbzwXfBBkByxiEQPmbJ-57" edge="1">
                    <mxGeometry x="-0.2944" y="14" width="160" relative="1" as="geometry">
                        <mxPoint x="327.0013720703125" y="96.00202794392908" as="sourcePoint"/>
                        <mxPoint x="452.0013720703125" y="96.00202794392908" as="targetPoint"/>
                        <mxPoint as="offset"/>
                    </mxGeometry>
                </mxCell>
                <mxCell id="8dbzwXfBBkByxiEQPmbJ-63" value="&amp;lt;&amp;lt;includes&amp;gt;&amp;gt;" style="endArrow=open;endSize=12;dashed=1;html=1;rounded=0;entryX=0;entryY=0.5;entryDx=0;entryDy=0;" parent="1" source="8dbzwXfBBkByxiEQPmbJ-54" target="8dbzwXfBBkByxiEQPmbJ-59" edge="1">
                    <mxGeometry x="0.0952" y="17" width="160" relative="1" as="geometry">
                        <mxPoint x="297.0013720703125" y="337.0020279439291" as="sourcePoint"/>
                        <mxPoint x="407.0013720703125" y="197.00202794392908" as="targetPoint"/>
                        <mxPoint as="offset"/>
                    </mxGeometry>
                </mxCell>
                <mxCell id="8dbzwXfBBkByxiEQPmbJ-64" value="&amp;lt;&amp;lt;includes&amp;gt;&amp;gt;" style="endArrow=open;endSize=12;dashed=1;html=1;rounded=0;exitX=1.025;exitY=0.65;exitDx=0;exitDy=0;exitPerimeter=0;entryX=0;entryY=0.5;entryDx=0;entryDy=0;" parent="1" source="8dbzwXfBBkByxiEQPmbJ-54" target="8dbzwXfBBkByxiEQPmbJ-60" edge="1">
                    <mxGeometry x="0.2173" y="18" width="160" relative="1" as="geometry">
                        <mxPoint x="347.0013720703125" y="257.0020279439291" as="sourcePoint"/>
                        <mxPoint x="377.0013720703125" y="387.0020279439291" as="targetPoint"/>
                        <mxPoint as="offset"/>
                    </mxGeometry>
                </mxCell>
                <mxCell id="8dbzwXfBBkByxiEQPmbJ-65" value="" style="endArrow=none;html=1;rounded=0;entryX=0;entryY=1;entryDx=0;entryDy=0;" parent="1" target="8dbzwXfBBkByxiEQPmbJ-53" edge="1">
                    <mxGeometry width="50" height="50" relative="1" as="geometry">
                        <mxPoint x="77.00137207031253" y="297.0020279439291" as="sourcePoint"/>
                        <mxPoint x="187.00137207031253" y="257.0020279439291" as="targetPoint"/>
                    </mxGeometry>
                </mxCell>
                <mxCell id="8dbzwXfBBkByxiEQPmbJ-66" value="allow replies" style="ellipse;whiteSpace=wrap;html=1;" parent="1" vertex="1">
                    <mxGeometry x="383.0013720703125" y="400.0020279439291" width="90" height="50" as="geometry"/>
                </mxCell>
                <mxCell id="8dbzwXfBBkByxiEQPmbJ-67" value="&amp;lt;&amp;lt;includes&amp;gt;&amp;gt;" style="endArrow=open;endSize=12;dashed=1;html=1;rounded=0;entryX=0;entryY=0;entryDx=0;entryDy=0;exitX=0.81;exitY=0.925;exitDx=0;exitDy=0;exitPerimeter=0;" parent="1" source="8dbzwXfBBkByxiEQPmbJ-54" target="8dbzwXfBBkByxiEQPmbJ-66" edge="1">
                    <mxGeometry x="-0.0574" y="12" width="160" relative="1" as="geometry">
                        <mxPoint x="308.0013720703125" y="427.0020279439291" as="sourcePoint"/>
                        <mxPoint x="387.0013720703125" y="397.0020279439291" as="targetPoint"/>
                        <mxPoint as="offset"/>
                    </mxGeometry>
                </mxCell>
                <mxCell id="8dbzwXfBBkByxiEQPmbJ-68" value="4. Forum Subsystem" style="text;html=1;align=center;verticalAlign=middle;whiteSpace=wrap;rounded=0;" parent="1" vertex="1">
                    <mxGeometry x="307.0013720703125" y="57.00202794392907" width="60" height="30" as="geometry"/>
                </mxCell>
                <mxCell id="8dbzwXfBBkByxiEQPmbJ-69" value="delete forum" style="ellipse;whiteSpace=wrap;html=1;" parent="1" vertex="1">
                    <mxGeometry x="415.0013720703125" y="93.00202794392908" width="85" height="50" as="geometry"/>
                </mxCell>
                <mxCell id="8dbzwXfBBkByxiEQPmbJ-71" value="&amp;lt;&amp;lt;extends&amp;gt;&amp;gt;" style="endArrow=open;endSize=12;dashed=1;html=1;rounded=0;entryX=1;entryY=0;entryDx=0;entryDy=0;exitX=0;exitY=1;exitDx=0;exitDy=0;" parent="1" source="8dbzwXfBBkByxiEQPmbJ-69" target="8dbzwXfBBkByxiEQPmbJ-53" edge="1">
                    <mxGeometry x="-0.1106" y="-11" width="160" relative="1" as="geometry">
                        <mxPoint x="327" y="207" as="sourcePoint"/>
                        <mxPoint x="436" y="133" as="targetPoint"/>
                        <mxPoint x="-1" as="offset"/>
                        <Array as="points"/>
                    </mxGeometry>
                </mxCell>
            </root>
        </mxGraphModel>
    </diagram>
</mxfile>